# xmcd CD database file
#
# Track frame offsets:
#	150
#	13169
#	26587
#	37969
#	51934
#	64967
#	77368
#	88120
#	103071
#	118993
#	134949
#
# Disc length: 2007 seconds
#
# Revision: 0
# Processed by: cddbd v1.5.1PL0 Copyright (c) Steve Scherf et al.
# Submitted via: CDex 1.51
#
DISCID=9a07d50b
DTITLE=Gerry Mulligan - Feelin' Good
DYEAR=1965
DGENRE=Jazz
TTITLE0=The Lonely Night (Night Lights)
TTITLE1=Please Don't Talk About Me When I'm Gone
TTITLE2=The Second Time Around
TTITLE3=Not Mine
TTITLE4=P.S. I Love You
TTITLE5=The Song Is Ended
TTITLE6=Love Walked In
TTITLE7=Feeling Good
TTITLE8=Love Is the Sweetest Thing
TTITLE9=I'll Walk Alone
TTITLE10=The Shadow of Your Smile
EXTD=YEAR: 1965
EXTT0=
EXTT1=
EXTT2=
EXTT3=
EXTT4=
EXTT5=
EXTT6=
EXTT7=
EXTT8=
EXTT9=
EXTT10=
PLAYORDER=
